<svg width="61" height="61" viewBox="0 0 61 61" fill="none" xmlns="http://www.w3.org/2000/svg">
<rect width="61" height="61" rx="10" fill="#F68D2C"/>
<path fill-rule="evenodd" clip-rule="evenodd" d="M26.25 31.8305C30.3819 31.8305 33.6939 28.4756 33.6939 24.2903C33.6939 20.1049 30.3819 16.75 26.25 16.75C22.1181 16.75 18.8061 20.1049 18.8061 24.2903C18.8061 28.4756 22.1181 31.8305 26.25 31.8305ZM26.25 35.5228C20.1813 35.5228 15 36.4931 15 40.3697C15 44.2447 20.1498 45.25 26.25 45.25C32.3172 45.25 37.5 44.2797 37.5 40.4031C37.5 36.5265 32.3502 35.5228 26.25 35.5228ZM41.8469 27.3818H43.6515C44.3944 27.3818 45 27.996 45 28.7492C45 29.5025 44.3944 30.1166 43.6515 30.1166H41.8469V31.8826C41.8469 32.6358 41.2428 33.25 40.4985 33.25C39.7557 33.25 39.15 32.6358 39.15 31.8826V30.1166H37.3485C36.6041 30.1166 36 29.5025 36 28.7492C36 27.996 36.6041 27.3818 37.3485 27.3818H39.15V25.6174C39.15 24.8642 39.7557 24.25 40.4985 24.25C41.2428 24.25 41.8469 24.8642 41.8469 25.6174V27.3818Z" fill="white"/>
</svg>
