<svg width="61" height="61" viewBox="0 0 61 61" fill="none" xmlns="http://www.w3.org/2000/svg">
<rect width="61" height="61" rx="10" fill="#F68D2C"/>
<path d="M30.03 15.5C21.315 15.5 15 22.61 15 30.5C15 33.02 15.735 35.615 17.025 37.985C17.265 38.375 17.295 38.87 17.13 39.335L16.125 42.695C15.9 43.505 16.59 44.105 17.355 43.865L20.385 42.965C21.21 42.695 21.855 43.04 22.6215 43.505C24.8115 44.795 27.54 45.455 30 45.455C37.44 45.455 45 39.71 45 30.455C45 22.475 38.55 15.5 30.03 15.5Z" fill="white"/>
<path fill-rule="evenodd" clip-rule="evenodd" d="M29.9709 32.4349C28.9059 32.4199 28.0509 31.5649 28.0509 30.4999C28.0509 29.4499 28.9209 28.5799 29.9709 28.5949C31.0359 28.5949 31.8909 29.4499 31.8909 30.5149C31.8909 31.5649 31.0359 32.4349 29.9709 32.4349ZM23.0553 32.4349C22.0053 32.4349 21.1353 31.5649 21.1353 30.5149C21.1353 29.4499 21.9903 28.5949 23.0553 28.5949C24.1203 28.5949 24.9753 29.4499 24.9753 30.5149C24.9753 31.5649 24.1203 32.4199 23.0553 32.4349ZM34.9656 30.5149C34.9656 31.5649 35.8206 32.4349 36.8856 32.4349C37.9506 32.4349 38.8056 31.5649 38.8056 30.5149C38.8056 29.4499 37.9506 28.5949 36.8856 28.5949C35.8206 28.5949 34.9656 29.4499 34.9656 30.5149Z" fill="#F68D2C"/>
</svg>
