<svg width="61" height="61" viewBox="0 0 61 61" fill="none" xmlns="http://www.w3.org/2000/svg">
<rect width="61" height="61" rx="10" fill="#F68D2C"/>
<path d="M39.4998 16.75H20.4998C17.0007 16.75 14.1665 19.5683 14.1665 23.0358V38.9642C14.1665 42.4317 17.0007 45.25 20.4998 45.25H39.4998C42.999 45.25 45.8332 42.4317 45.8332 38.9642V23.0358C45.8332 19.5683 42.999 16.75 39.4998 16.75ZM24.4582 23.3525C26.469 23.3525 28.1157 24.9992 28.1157 27.01C28.1157 29.0208 26.469 30.6675 24.4582 30.6675C22.4473 30.6675 20.8007 29.0208 20.8007 27.01C20.8007 24.9992 22.4473 23.3525 24.4582 23.3525ZM30.5857 38.3783C30.4432 38.5367 30.2215 38.6317 29.9998 38.6317H18.9165C18.6948 38.6317 18.4732 38.5367 18.3307 38.3783C18.1882 38.22 18.109 37.9983 18.1248 37.7767C18.394 35.1167 20.5157 33.0108 23.1757 32.7575C24.0148 32.6783 24.8857 32.6783 25.7248 32.7575C28.3848 33.0108 30.5223 35.1167 30.7757 37.7767C30.8073 37.9983 30.7282 38.22 30.5857 38.3783ZM41.0832 38.5208H37.9165C37.2673 38.5208 36.729 37.9825 36.729 37.3333C36.729 36.6842 37.2673 36.1458 37.9165 36.1458H41.0832C41.7323 36.1458 42.2707 36.6842 42.2707 37.3333C42.2707 37.9825 41.7323 38.5208 41.0832 38.5208ZM41.0832 32.1875H34.7498C34.1007 32.1875 33.5623 31.6492 33.5623 31C33.5623 30.3508 34.1007 29.8125 34.7498 29.8125H41.0832C41.7323 29.8125 42.2707 30.3508 42.2707 31C42.2707 31.6492 41.7323 32.1875 41.0832 32.1875ZM41.0832 25.8542H33.1665C32.5173 25.8542 31.979 25.3158 31.979 24.6667C31.979 24.0175 32.5173 23.4792 33.1665 23.4792H41.0832C41.7323 23.4792 42.2707 24.0175 42.2707 24.6667C42.2707 25.3158 41.7323 25.8542 41.0832 25.8542Z" fill="white"/>
</svg>
