<svg width="61" height="62" viewBox="0 0 61 62" fill="none" xmlns="http://www.w3.org/2000/svg">
<g id="Icon IT recruitment in Ukraine&#194;&#160;">
<rect id="Rectangle 13744" y="0.5" width="61" height="61" rx="10" fill="#F68D2C"/>
<g id="Group 1000002708">
<path id="Fill 1" d="M29.9848 36.2017C23.3723 36.2017 17.793 37.2822 17.793 41.4524C17.793 45.6243 23.4083 46.6668 29.9848 46.6668C36.5972 46.6668 42.1766 45.5863 42.1766 41.4161C42.1766 37.2442 36.5612 36.2017 29.9848 36.2017Z" fill="white"/>
<path id="Fill 3" d="M29.9858 32.2285C34.4633 32.2285 38.0536 28.6175 38.0536 24.1142C38.0536 19.6092 34.4633 16 29.9858 16C25.5082 16 21.918 19.6092 21.918 24.1142C21.918 28.6175 25.5082 32.2285 29.9858 32.2285Z" fill="white"/>
<path id="Fill 6" d="M47.5027 25.6493C48.6612 21.0925 45.2648 17 40.94 17C40.4698 17 40.0202 17.0518 39.5808 17.1398C39.5225 17.1536 39.4572 17.183 39.4229 17.2347C39.3834 17.3003 39.4126 17.3884 39.4555 17.4453C40.7547 19.2784 41.5012 21.5102 41.5012 23.906C41.5012 26.2017 40.8165 28.342 39.6151 30.1181C39.4916 30.3011 39.6014 30.5479 39.8194 30.5859C40.1214 30.6394 40.4303 30.667 40.7461 30.6756C43.8953 30.7585 46.7219 28.72 47.5027 25.6493Z" fill="white"/>
<path id="Fill 8" d="M50.801 36.7324C50.2244 35.4965 48.8326 34.649 46.7165 34.233C45.7177 33.9879 43.0147 33.6427 40.5005 33.6893C40.4627 33.6945 40.4421 33.7204 40.4387 33.7377C40.4335 33.7618 40.4438 33.8032 40.4936 33.8291C41.6555 34.4074 46.1467 36.9222 45.5821 42.2264C45.5581 42.456 45.7417 42.6545 45.97 42.62C47.0752 42.4612 49.9189 41.8467 50.801 39.9325C51.2884 38.921 51.2884 37.7456 50.801 36.7324Z" fill="white"/>
<path id="Fill 11" d="M20.5854 17.4945C20.1478 17.4048 19.6964 17.3547 19.2262 17.3547C14.9014 17.3547 11.5051 21.4472 12.6652 26.0041C13.4444 29.0747 16.2709 31.1132 19.4201 31.0304C19.7359 31.0217 20.0465 30.9924 20.3469 30.9406C20.5648 30.9026 20.6747 30.6558 20.5511 30.4728C19.3498 28.695 18.665 26.5564 18.665 24.2607C18.665 21.8632 19.4133 19.6314 20.7124 17.8001C20.7536 17.7431 20.7845 17.6551 20.7433 17.5895C20.709 17.536 20.6455 17.5084 20.5854 17.4945Z" fill="white"/>
<path id="Fill 13" d="M13.4496 34.2326C11.3336 34.6486 9.94347 35.4961 9.36684 36.7319C8.87772 37.7451 8.87772 38.9206 9.36684 39.9338C10.249 41.8463 13.0927 42.4625 14.1979 42.6195C14.4262 42.6541 14.6081 42.4573 14.584 42.226C14.0194 36.9235 18.5107 34.4087 19.6743 33.8304C19.7223 33.8028 19.7326 33.7631 19.7275 33.7372C19.724 33.72 19.7052 33.6941 19.6674 33.6906C17.1515 33.6423 14.4502 33.9875 13.4496 34.2326Z" fill="white"/>
</g>
</g>
</svg>
