<svg width="61" height="61" viewBox="0 0 61 61" fill="none" xmlns="http://www.w3.org/2000/svg">
<rect width="61" height="61" rx="10" fill="#F68D2C"/>
<path d="M44.1411 16.2599C43.3911 15.5146 42.2811 15.239 41.2461 15.5307L17.1111 22.3105C16.0191 22.6051 15.2451 23.4465 15.0366 24.514C14.8236 25.6019 15.5676 26.9844 16.5396 27.5619L24.0861 32.0419C24.8601 32.5028 25.8591 32.3876 26.4996 31.7634L35.1411 23.3619C35.5761 22.923 36.2961 22.923 36.7311 23.3619C37.1661 23.7834 37.1661 24.4703 36.7311 24.9078L28.0746 33.3092C27.4326 33.9334 27.3126 34.9017 27.7851 35.6557L32.3961 43.0203C32.9361 43.8938 33.8661 44.3911 34.8861 44.3911C35.0061 44.3911 35.1411 44.3911 35.2611 44.3751C36.4311 44.2307 37.3611 43.4563 37.7061 42.3626L44.8611 19.0744C45.1761 18.0828 44.8911 17.0036 44.1411 16.2599Z" fill="white"/>
<path fill-rule="evenodd" clip-rule="evenodd" d="M16.5157 37.0111C16.2277 37.0111 15.9397 36.9047 15.7207 36.6903C15.2812 36.263 15.2812 35.5718 15.7207 35.1445L17.7682 33.1524C18.2077 32.7265 18.9202 32.7265 19.3597 33.1524C19.7977 33.5797 19.7977 34.2724 19.3597 34.6997L17.3107 36.6903C17.0917 36.9047 16.8037 37.0111 16.5157 37.0111ZM22.1575 38.75C21.8695 38.75 21.5815 38.6436 21.3625 38.4292C20.923 38.0019 20.923 37.3107 21.3625 36.8834L23.41 34.8913C23.8495 34.4655 24.562 34.4655 25.0015 34.8913C25.4395 35.3186 25.4395 36.0113 25.0015 36.4386L22.9525 38.4292C22.7335 38.6436 22.4455 38.75 22.1575 38.75ZM22.5381 43.9534C22.7571 44.1678 23.0451 44.2742 23.3331 44.2742C23.6211 44.2742 23.9091 44.1678 24.1281 43.9534L26.1771 41.9628C26.6151 41.5355 26.6151 40.8428 26.1771 40.4155C25.7376 39.9896 25.0251 39.9896 24.5856 40.4155L22.5381 42.4075C22.0986 42.8348 22.0986 43.5261 22.5381 43.9534Z" fill="white"/>
</svg>
