<svg width="61" height="61" viewBox="0 0 61 61" fill="none" xmlns="http://www.w3.org/2000/svg">
<rect width="61" height="61" rx="10" fill="#F68D2C"/>
<path d="M29.0414 15.9019C21.7935 15.9019 15.9019 21.7935 15.9019 29.0414C15.9019 36.2894 21.7935 42.181 29.0414 42.181C36.2894 42.181 42.181 36.2894 42.181 29.0414C42.181 21.7935 36.2894 15.9019 29.0414 15.9019ZM29.0414 32.3227H24.6664C24.0685 32.3227 23.5727 31.8269 23.5727 31.2289C23.5727 30.631 24.0685 30.1352 24.6664 30.1352H29.0414C29.6394 30.1352 30.1352 30.631 30.1352 31.2289C30.1352 31.8269 29.6394 32.3227 29.0414 32.3227ZM33.4164 27.9477H24.6664C24.0685 27.9477 23.5727 27.4519 23.5727 26.8539C23.5727 26.256 24.0685 25.7602 24.6664 25.7602H33.4164C34.0144 25.7602 34.5102 26.256 34.5102 26.8539C34.5102 27.4519 34.0144 27.9477 33.4164 27.9477Z" fill="white"/>
<path d="M45.0687 40.6354C44.5875 39.7458 43.5667 39.25 42.1958 39.25C41.1604 39.25 40.2708 39.6729 39.7458 40.4021C39.2208 41.1313 39.1042 42.1083 39.425 43.0854C40.0521 44.9813 41.1458 45.4042 41.7437 45.4771C41.8312 45.4917 41.9187 45.4917 42.0208 45.4917C42.6625 45.4917 43.6542 45.2146 44.6167 43.7708C45.3896 42.6479 45.5354 41.525 45.0687 40.6354Z" fill="white"/>
</svg>
