<svg width="61" height="61" viewBox="0 0 61 61" fill="none" xmlns="http://www.w3.org/2000/svg">
<rect width="61" height="61" rx="10" fill="#F68D2C"/>
<path fill-rule="evenodd" clip-rule="evenodd" d="M28.0565 18.2785C27.051 18.2785 26.1956 18.9772 25.9555 19.919H34.0295C33.7894 18.9772 32.934 18.2785 31.9285 18.2785H28.0565ZM36.3107 19.919H39.2821C42.4337 19.919 45 22.5164 45 25.7063C45 25.7063 44.91 27.0567 44.8799 28.9372C44.8769 29.086 44.8049 29.2318 44.6863 29.3199C43.9645 29.8531 43.3042 30.2936 43.2441 30.324C40.7529 31.9949 37.8579 33.1705 34.7739 33.7554C34.5728 33.7948 34.3747 33.69 34.2726 33.5108C33.4082 32.0131 31.7934 31.0379 29.9925 31.0379C28.2036 31.0379 26.5738 32.0025 25.6838 33.5017C25.5803 33.6779 25.3852 33.7797 25.1856 33.7417C22.1271 33.1554 19.2321 31.9812 16.7559 30.3392L15.3152 29.3366C15.1951 29.2607 15.1201 29.124 15.1201 28.9721C15.075 28.1974 15 25.7063 15 25.7063C15 22.5164 17.5663 19.919 20.7179 19.919H23.6743C23.9595 17.7164 25.8054 16 28.0565 16H31.9285C34.1796 16 36.0255 17.7164 36.3107 19.919ZM44.4897 32.2229L44.4297 32.2532C41.3982 34.2887 37.7514 35.6406 33.9245 36.2026C33.3842 36.2785 32.8439 35.9292 32.6938 35.3823C32.3637 34.1368 31.2981 33.3165 30.0225 33.3165H30.0075H29.9775C28.7019 33.3165 27.6363 34.1368 27.3062 35.3823C27.1561 35.9292 26.6158 36.2785 26.0755 36.2026C22.2486 35.6406 18.6018 34.2887 15.5703 32.2532C15.5553 32.238 15.4052 32.1469 15.2851 32.2229C15.1501 32.2988 15.1501 32.4811 15.1501 32.4811L15.2551 40.2279C15.2551 43.4177 17.8064 46 20.958 46H39.027C42.1786 46 44.7299 43.4177 44.7299 40.2279L44.8499 32.4811C44.8499 32.4811 44.8499 32.2988 44.7149 32.2229C44.6398 32.1773 44.5498 32.1925 44.4897 32.2229ZM31.1181 38.5874C31.1181 39.2254 30.6228 39.7266 29.9925 39.7266C29.3772 39.7266 28.8669 39.2254 28.8669 38.5874V36.6279C28.8669 36.0051 29.3772 35.4887 29.9925 35.4887C30.6228 35.4887 31.1181 36.0051 31.1181 36.6279V38.5874Z" fill="white"/>
</svg>
